<svg id="Capa_1" enable-background="new 0 0 510 510" height="512" viewBox="0 0 510 510" width="512" xmlns="http://www.w3.org/2000/svg" xmlns:xlink="http://www.w3.org/1999/xlink"><linearGradient id="lg1"><stop offset="0" stop-color="#ff4974"/><stop offset=".2231" stop-color="#fb3f6c"/><stop offset=".6075" stop-color="#f12357"/><stop offset="1" stop-color="#e4003d"/></linearGradient><linearGradient id="SVGID_1_" gradientUnits="userSpaceOnUse" x1="35.421" x2="56.672" xlink:href="#lg1" y1="196.747" y2="227.656"/><linearGradient id="lg2"><stop offset="0" stop-color="#4f4a72"/><stop offset="1" stop-color="#3b395f"/></linearGradient><linearGradient id="SVGID_2_" gradientUnits="userSpaceOnUse" x1="16" x2="26.013" xlink:href="#lg2" y1="232.777" y2="232.777"/><linearGradient id="SVGID_3_" gradientUnits="userSpaceOnUse" x1="233.969" x2="248.334" xlink:href="#lg1" y1="71.84" y2="108.386"/><linearGradient id="SVGID_4_" gradientUnits="userSpaceOnUse" x1="260.73" x2="260.73" xlink:href="#lg1" y1="139.231" y2="229.237"/><linearGradient id="SVGID_5_" gradientUnits="userSpaceOnUse" x1="271.08" x2="298.527" xlink:href="#lg2" y1="125.709" y2="175.305"/><linearGradient id="SVGID_6_" gradientUnits="userSpaceOnUse" x1="347.555" x2="375.003" xlink:href="#lg2" y1="125.708" y2="175.307"/><linearGradient id="SVGID_7_" gradientUnits="userSpaceOnUse" x1="421.773" x2="448.22" xlink:href="#lg2" y1="125.477" y2="173.268"/><linearGradient id="SVGID_8_" gradientUnits="userSpaceOnUse" x1="194.605" x2="222.053" xlink:href="#lg2" y1="125.708" y2="175.307"/><linearGradient id="SVGID_9_" gradientUnits="userSpaceOnUse" x1="103.245" x2="141.943" xlink:href="#lg2" y1="132.689" y2="171.387"/><linearGradient id="SVGID_10_" gradientUnits="userSpaceOnUse" x1="226.713" x2="294.713" xlink:href="#lg1" y1="232.298" y2="405.298"/><linearGradient id="SVGID_11_" gradientUnits="userSpaceOnUse" x1="241.181" x2="271.181" xlink:href="#lg1" y1="292.749" y2="418.749"/><linearGradient id="lg3"><stop offset="0" stop-color="#d4f7ff"/><stop offset="1" stop-color="#a2e3e9"/></linearGradient><linearGradient id="SVGID_12_" gradientUnits="userSpaceOnUse" x1="323.052" x2="336.568" xlink:href="#lg3" y1="295.916" y2="352.683"/><linearGradient id="SVGID_13_" gradientUnits="userSpaceOnUse" x1="81.093" x2="145.061" xlink:href="#lg1" y1="212.512" y2="442.428"/><linearGradient id="lg4"><stop offset="0" stop-color="#a34a9e" stop-opacity="0"/><stop offset="1" stop-color="#343168"/></linearGradient><linearGradient id="SVGID_14_" gradientUnits="userSpaceOnUse" x1="100.752" x2="100.752" xlink:href="#lg4" y1="313.424" y2="448.869"/><linearGradient id="SVGID_15_" gradientUnits="userSpaceOnUse" x1="424.167" x2="424.167" xlink:href="#lg4" y1="313.424" y2="448.869"/><linearGradient id="SVGID_16_" gradientUnits="userSpaceOnUse" x1="253.819" x2="253.819" xlink:href="#lg1" y1="371.77" y2="398.835"/><linearGradient id="lg5"><stop offset="0" stop-color="#a34a9e"/><stop offset=".1551" stop-color="#9b489a"/><stop offset=".4019" stop-color="#84438f"/><stop offset=".7073" stop-color="#5e3b7d"/><stop offset="1" stop-color="#343168"/></linearGradient><radialGradient id="SVGID_17_" cx="94.388" cy="376.029" gradientUnits="userSpaceOnUse" r="56.764" xlink:href="#lg5"/><linearGradient id="lg6"><stop offset="0" stop-color="#a34a9e"/><stop offset="1" stop-color="#343168"/></linearGradient><linearGradient id="SVGID_18_" gradientTransform="matrix(-1 0 0 -1 -2682 -1618)" gradientUnits="userSpaceOnUse" x1="-2816.577" x2="-2753.909" xlink:href="#lg6" y1="-2041.036" y2="-1978.368"/><linearGradient id="SVGID_19_" gradientUnits="userSpaceOnUse" x1="70.014" x2="126.959" xlink:href="#lg3" y1="358.473" y2="415.418"/><linearGradient id="SVGID_20_" gradientTransform="matrix(-1 0 0 -1 -2682 -1618)" gradientUnits="userSpaceOnUse" x1="-2800.611" x2="-2767.523" xlink:href="#lg3" y1="-2025.07" y2="-1991.981"/><linearGradient id="lg7"><stop offset="0" stop-color="#a2e3e9" stop-opacity="0"/><stop offset="1" stop-color="#518cd2"/></linearGradient><linearGradient id="SVGID_21_" gradientUnits="userSpaceOnUse" x1="123.553" x2="97.887" xlink:href="#lg7" y1="412.011" y2="386.345"/><linearGradient id="SVGID_22_" gradientUnits="userSpaceOnUse" x1="98.933" x2="108.171" xlink:href="#lg2" y1="387.392" y2="396.63"/><linearGradient id="SVGID_23_" gradientUnits="userSpaceOnUse" x1="99.122" x2="102.95" xlink:href="#lg2" y1="366.484" y2="370.311"/><linearGradient id="SVGID_24_" gradientUnits="userSpaceOnUse" x1="99.122" x2="102.95" xlink:href="#lg2" y1="408.678" y2="412.506"/><linearGradient id="SVGID_25_" gradientTransform="matrix(0 1 -1 0 -2150 532)" gradientUnits="userSpaceOnUse" x1="-144.419" x2="-140.592" xlink:href="#lg2" y1="-2273.477" y2="-2269.65"/><linearGradient id="SVGID_26_" gradientTransform="matrix(0 1 -1 0 -2150 532)" gradientUnits="userSpaceOnUse" x1="-144.419" x2="-140.592" xlink:href="#lg2" y1="-2231.283" y2="-2227.455"/><linearGradient id="SVGID_27_" gradientTransform="matrix(.707 .707 -.707 .707 -964.832 711.177)" gradientUnits="userSpaceOnUse" x1="524.192" x2="528.019" xlink:href="#lg2" y1="-1003.882" y2="-1000.055"/><linearGradient id="SVGID_28_" gradientTransform="matrix(.707 .707 -.707 .707 -964.832 711.177)" gradientUnits="userSpaceOnUse" x1="524.192" x2="528.019" xlink:href="#lg2" y1="-961.687" y2="-957.86"/><linearGradient id="SVGID_29_" gradientTransform="matrix(-.707 .707 .707 .707 -1717.168 711.177)" gradientUnits="userSpaceOnUse" x1="-1514.772" x2="-1510.945" xlink:href="#lg2" y1="1035.082" y2="1038.909"/><linearGradient id="SVGID_30_" gradientTransform="matrix(-.707 .707 .707 .707 -1717.168 711.177)" gradientUnits="userSpaceOnUse" x1="-1514.772" x2="-1510.945" xlink:href="#lg2" y1="1077.276" y2="1081.104"/><radialGradient id="SVGID_31_" cx="417.804" cy="376.029" gradientUnits="userSpaceOnUse" r="56.764" xlink:href="#lg5"/><linearGradient id="SVGID_32_" gradientTransform="matrix(-1 0 0 -1 -2682 -1618)" gradientUnits="userSpaceOnUse" x1="-3139.993" x2="-3077.326" xlink:href="#lg6" y1="-2041.036" y2="-1978.368"/><linearGradient id="SVGID_33_" gradientUnits="userSpaceOnUse" x1="393.431" x2="450.375" xlink:href="#lg3" y1="358.473" y2="415.417"/><linearGradient id="SVGID_34_" gradientTransform="matrix(-1 0 0 -1 -2682 -1618)" gradientUnits="userSpaceOnUse" x1="-3124.028" x2="-3090.939" xlink:href="#lg3" y1="-2025.07" y2="-1991.981"/><linearGradient id="SVGID_35_" gradientUnits="userSpaceOnUse" x1="446.969" x2="421.303" xlink:href="#lg7" y1="412.011" y2="386.345"/><linearGradient id="SVGID_36_" gradientUnits="userSpaceOnUse" x1="422.349" x2="431.588" xlink:href="#lg2" y1="387.392" y2="396.63"/><linearGradient id="SVGID_37_" gradientUnits="userSpaceOnUse" x1="422.539" x2="426.366" xlink:href="#lg2" y1="366.484" y2="370.311"/><linearGradient id="SVGID_38_" gradientUnits="userSpaceOnUse" x1="422.539" x2="426.366" xlink:href="#lg2" y1="408.678" y2="412.506"/><linearGradient id="SVGID_39_" gradientTransform="matrix(0 1 -1 0 -2150 532)" gradientUnits="userSpaceOnUse" x1="-144.419" x2="-140.592" xlink:href="#lg2" y1="-2596.893" y2="-2593.066"/><linearGradient id="SVGID_40_" gradientTransform="matrix(0 1 -1 0 -2150 532)" gradientUnits="userSpaceOnUse" x1="-144.419" x2="-140.592" xlink:href="#lg2" y1="-2554.699" y2="-2550.872"/><linearGradient id="SVGID_41_" gradientTransform="matrix(.707 .707 -.707 .707 -964.832 711.177)" gradientUnits="userSpaceOnUse" x1="752.884" x2="756.711" xlink:href="#lg2" y1="-1232.574" y2="-1228.747"/><linearGradient id="SVGID_42_" gradientTransform="matrix(.707 .707 -.707 .707 -964.832 711.177)" gradientUnits="userSpaceOnUse" x1="752.884" x2="756.711" xlink:href="#lg2" y1="-1190.379" y2="-1186.552"/><linearGradient id="SVGID_43_" gradientTransform="matrix(-.707 .707 .707 .707 -1717.168 711.177)" gradientUnits="userSpaceOnUse" x1="-1743.464" x2="-1739.637" xlink:href="#lg2" y1="1263.774" y2="1267.601"/><linearGradient id="SVGID_44_" gradientTransform="matrix(-.707 .707 .707 .707 -1717.168 711.177)" gradientUnits="userSpaceOnUse" x1="-1743.464" x2="-1739.637" xlink:href="#lg2" y1="1305.968" y2="1309.796"/><linearGradient id="lg8"><stop offset="0" stop-color="#ffe548"/><stop offset=".1758" stop-color="#ffde50"/><stop offset=".4446" stop-color="#ffca65"/><stop offset=".7709" stop-color="#ffaa87"/><stop offset="1" stop-color="#ff90a4"/></linearGradient><linearGradient id="SVGID_45_" gradientUnits="userSpaceOnUse" x1="475.114" x2="490.484" xlink:href="#lg8" y1="340.618" y2="359.12"/><linearGradient id="SVGID_46_" gradientUnits="userSpaceOnUse" x1="17.981" x2="21.991" xlink:href="#lg8" y1="336.839" y2="370.798"/><linearGradient id="SVGID_47_" gradientUnits="userSpaceOnUse" x1="25.092" x2="25.092" xlink:href="#lg3" y1="359.681" y2="386.428"/><linearGradient id="SVGID_48_" gradientUnits="userSpaceOnUse" x1="491.744" x2="491.744" xlink:href="#lg3" y1="359.681" y2="386.428"/><linearGradient id="SVGID_49_" gradientUnits="userSpaceOnUse" x1="233.314" x2="288.245" xlink:href="#lg2" y1="169.625" y2="367.06"/><linearGradient id="SVGID_50_" gradientUnits="userSpaceOnUse" x1="86.898" x2="138.231" xlink:href="#lg2" y1="226.823" y2="301.49"/><linearGradient id="SVGID_51_" gradientUnits="userSpaceOnUse" x1="193.635" x2="221.083" xlink:href="#lg2" y1="227.311" y2="276.91"/><linearGradient id="SVGID_52_" gradientUnits="userSpaceOnUse" x1="271.08" x2="298.527" xlink:href="#lg2" y1="226.775" y2="276.372"/><linearGradient id="SVGID_53_" gradientUnits="userSpaceOnUse" x1="347.555" x2="375.003" xlink:href="#lg2" y1="226.775" y2="276.373"/><linearGradient id="SVGID_54_" gradientUnits="userSpaceOnUse" x1="421.773" x2="448.22" xlink:href="#lg2" y1="226.544" y2="274.334"/><path d="m22.808 223.992h-8v-5.247c0-8.21 6.679-14.888 14.889-14.888h49.957v8h-49.958c-3.798 0-6.889 3.09-6.889 6.888v5.247z" fill="url(#SVGID_1_)"/><path d="m18.808 251.349c-3.47 0-6.284-2.813-6.284-6.284v-24.577c0-3.471 2.813-6.284 6.284-6.284 3.471 0 6.284 2.813 6.284 6.284v24.577c0 3.471-2.814 6.284-6.284 6.284z" fill="url(#SVGID_2_)"/><path d="m316.89 94.445h-152.95v-10.786c0-4.721 3.827-8.548 8.548-8.548h135.854c4.721 0 8.548 3.827 8.548 8.548z" fill="url(#SVGID_3_)"/><path d="m468.811 86.01h-373.892c-35.539 0-64.688 28.289-65.603 63.815-.287 11.121 0 138.318 0 138.318h462.954v-178.673c0-12.957-10.503-23.46-23.459-23.46z" fill="url(#SVGID_4_)"/><path d="m240.42 102.016h76.47v74.76h-76.47z" fill="url(#SVGID_5_)"/><path d="m316.89 102.016h76.48v74.76h-76.48z" fill="url(#SVGID_6_)"/><path d="m469.85 112.416v53.96c0 5.74-4.66 10.4-10.4 10.4h-66.08v-74.76h66.08c5.74 0 10.4 4.66 10.4 10.4z" fill="url(#SVGID_7_)"/><path d="m163.94 102.016h76.48v74.76h-76.48z" fill="url(#SVGID_8_)"/><path d="m49.872 146.645v19.731c0 5.744 4.656 10.4 10.4 10.4h103.668v-74.76h-69.439c-24.648 0-44.629 19.981-44.629 44.629z" fill="url(#SVGID_9_)"/><path d="m468.811 187.077h-373.892c-35.539 0-64.688 28.289-65.603 63.815-.287 11.121-1.088 19.484-6.421 21.755-6.319 2.896-10.371 9.209-10.371 16.16v100.403h479.746v-178.674c0-12.956-10.503-23.459-23.459-23.459z" fill="url(#SVGID_10_)"/><path d="m12.524 290.5h479.746v98.709h-479.746z" fill="url(#SVGID_11_)"/><path d="m163.94 308.259h328.33v17.759h-328.33z" fill="url(#SVGID_12_)"/><path d="m163.94 203.087h-53.552c-35.539 0-64.688 28.289-65.603 63.815-.287 11.121 0 122.308 0 122.308h119.155z" fill="url(#SVGID_13_)"/><path d="m163.94 389.207h-126.377c0-34.899 28.29-63.189 63.189-63.189 5.977 0 11.767.828 17.257 2.391 26.514 7.506 45.931 31.885 45.931 60.798z" fill="url(#SVGID_14_)"/><path d="m487.355 389.207h-126.377c0-34.899 28.29-63.189 63.189-63.189 5.977 0 11.767.828 17.257 2.391 26.514 7.506 45.931 31.885 45.931 60.798z" fill="url(#SVGID_15_)"/><path d="m27.098 370.323h453.443v21.372h-453.443z" fill="url(#SVGID_16_)"/><circle cx="100.751" cy="389.21" fill="url(#SVGID_17_)" r="45.679"/><circle cx="100.751" cy="389.21" fill="url(#SVGID_18_)" r="29.544"/><circle cx="100.751" cy="389.21" fill="url(#SVGID_19_)" r="26.845"/><circle cx="100.751" cy="389.21" fill="url(#SVGID_20_)" r="15.599"/><path d="m124.877 400.99-17.542-17.542c-1.605-1.833-3.956-2.996-6.584-2.996-4.837 0-8.757 3.921-8.757 8.758 0 2.628 1.163 4.979 2.996 6.584l17.542 17.542c5.363-2.624 9.721-6.983 12.345-12.346z" fill="url(#SVGID_21_)"/><circle cx="100.751" cy="389.21" fill="url(#SVGID_22_)" r="8.757"/><circle cx="100.751" cy="368.113" fill="url(#SVGID_23_)" r="3.106"/><circle cx="100.751" cy="410.307" fill="url(#SVGID_24_)" r="3.106"/><circle cx="121.848" cy="389.21" fill="url(#SVGID_25_)" r="3.106"/><circle cx="79.654" cy="389.21" fill="url(#SVGID_26_)" r="3.106"/><circle cx="115.669" cy="374.292" fill="url(#SVGID_27_)" r="3.106"/><circle cx="85.833" cy="404.128" fill="url(#SVGID_28_)" r="3.106"/><circle cx="85.833" cy="374.292" fill="url(#SVGID_29_)" r="3.106"/><circle cx="115.669" cy="404.128" fill="url(#SVGID_30_)" r="3.106"/><circle cx="424.167" cy="389.21" fill="url(#SVGID_31_)" r="45.679"/><circle cx="424.167" cy="389.21" fill="url(#SVGID_32_)" r="29.544"/><circle cx="424.167" cy="389.21" fill="url(#SVGID_33_)" r="26.845"/><circle cx="424.167" cy="389.21" fill="url(#SVGID_34_)" r="15.599"/><path d="m448.293 400.99-17.542-17.542c-1.605-1.833-3.956-2.996-6.584-2.996-4.837 0-8.757 3.921-8.757 8.758 0 2.628 1.163 4.979 2.996 6.584l17.542 17.542c5.363-2.624 9.721-6.983 12.345-12.346z" fill="url(#SVGID_35_)"/><circle cx="424.167" cy="389.21" fill="url(#SVGID_36_)" r="8.757"/><circle cx="424.167" cy="368.113" fill="url(#SVGID_37_)" r="3.106"/><circle cx="424.167" cy="410.307" fill="url(#SVGID_38_)" r="3.106"/><circle cx="445.265" cy="389.21" fill="url(#SVGID_39_)" r="3.106"/><circle cx="403.07" cy="389.21" fill="url(#SVGID_40_)" r="3.106"/><circle cx="439.085" cy="374.292" fill="url(#SVGID_41_)" r="3.106"/><circle cx="409.25" cy="404.128" fill="url(#SVGID_42_)" r="3.106"/><circle cx="409.25" cy="374.292" fill="url(#SVGID_43_)" r="3.106"/><circle cx="439.085" cy="404.128" fill="url(#SVGID_44_)" r="3.106"/><path d="m492.637 338.972h-7.361c-4.856 0-8.793 3.937-8.793 8.792v17.242h16.153v-26.034z" fill="url(#SVGID_45_)"/><path d="m19.2 338.972h-6.676v26.035h15.469v-17.242c-.001-4.856-3.937-8.793-8.793-8.793z" fill="url(#SVGID_46_)"/><path d="m38.547 396.821h-26.911c-6.426 0-11.636-5.21-11.636-11.636v-13.81c0-6.427 5.21-11.636 11.636-11.636h26.911c6.426 0 11.636 5.21 11.636 11.636v13.81c0 6.426-5.21 11.636-11.636 11.636z" fill="url(#SVGID_47_)"/><path d="m498.364 396.821h-13.24c-6.427 0-11.636-5.21-11.636-11.636v-13.81c0-6.427 5.21-11.636 11.636-11.636h13.24c6.427 0 11.636 5.21 11.636 11.636v13.81c0 6.426-5.21 11.636-11.636 11.636z" fill="url(#SVGID_48_)"/><path d="m469.846 213.483c0-5.742-4.655-10.397-10.396-10.397h-295.51-39.063-14.489c-35.539 0-64.688 28.289-65.603 63.815-.178 6.92-.135 21.304-.076 31.183.034 5.718 4.678 10.335 10.396 10.335h52.457c14.628 0 28.731-5.451 39.556-15.29 10.825-9.839 24.928-15.29 39.556-15.29h272.776c5.742 0 10.396-4.655 10.396-10.397z" fill="url(#SVGID_49_)"/><path d="m44.785 266.905c-.067 2.619-.103 10.77-.118 21.705.009 3.342.025 6.6.042 9.475.034 5.718 4.678 10.335 10.396 10.335h52.457c14.628 0 28.731-5.451 39.556-15.29 4.997-4.542 10.699-8.136 16.823-10.703v-79.34h-53.552c-25.543 0-47.786 14.614-58.617 36.026-1.884 3.724-3.422 7.653-4.573 11.747-.575 2.047-1.054 4.135-1.43 6.259-.188 1.062-.351 2.133-.487 3.212-.273 2.159-.44 4.351-.497 6.571z" fill="url(#SVGID_50_)"/><path d="m240.42 203.083v74.76h-53.75c-7.31 0-14.49 1.36-21.2 3.96-.51.2-1.03.4-1.53.62v-79.34z" fill="url(#SVGID_51_)"/><path d="m240.42 203.083h76.47v74.76h-76.47z" fill="url(#SVGID_52_)"/><path d="m316.89 203.083h76.48v74.76h-76.48z" fill="url(#SVGID_53_)"/><path d="m469.85 213.483v53.96c0 5.74-4.66 10.4-10.4 10.4h-66.08v-74.76h66.08c5.74 0 10.4 4.66 10.4 10.4z" fill="url(#SVGID_54_)"/></svg>